<?xml version="1.0" encoding="utf-8"?>
<svg version="1.1" xmlns="http://www.w3.org/2000/svg" xmlns:xlink="http://www.w3.org/1999/xlink" preserveAspectRatio="none" x="0" y="0" width="1000" height="1000" viewBox="0 0 1000 1000">
	<polygon fill="#d7c2a1" points="506.31,422.71 803.72,282.42 790.4,354.67 794.61,363.09 908.94,174.4 91.06,174.4 206.1,366.6 " />
	<polygon fill="#ffffff" points="502.81,425.52 200.48,368.7 196.28,350.46 206.1,366.6 506.31,422.71 560.32,397.46 " />
	<path fill="#ffffff" d="M506.31,422.71L206.1,365.9l-9.82-16.13l-19.64-91.89c14.73,11.22,172.55,65.94,204.82,76.46l0,0 c-21.04-34.37-54.71-67.34-86.28-99.6c22.45,23.15,62.43,45.59,93.99,65.23c11.92,7.72,23.85,14.73,37.18,21.74 c-1.4-36.48-18.94-72.95-32.27-108.02c9.82,26.65,39.28,55.41,61.03,80.67c6.31,7.01,12.63,14.03,20.34,21.04 c17.54-35.07,23.85-72.95,24.55-108.72c-0.7,32.97,6.31,74.35,24.55,108.02c9.12-8.42,16.83-17.54,24.55-25.95 c20.34-23.85,47-50.5,56.82-75.05c-13.33,35.77-29.46,72.25-31.56,108.72c51.21-25.95,91.19-59.62,130.47-88.38 c-31.56,23.15-53.31,54.71-73.65,81.37c-4.21,5.61-9.12,11.92-12.63,18.24h0.7c32.27-10.52,187.99-56.82,187.99-56.82l-245.5,119.25 L506.31,422.71" />
	<path fill="#98182b" d="M493.69,3.95C253.09-12.88,119.12,29.2,94.57,34.11v67.34c70.14-15.43,195-37.18,371.76-42.79l0,0h0.7l0,0 c242.7-4.91,392.11,23.85,434.19,34.37l0,0C900.52,93.04,760.23,27.8,493.69,3.95" />
	<path fill="#98182b" d="M807.23,666.11c-103.11,125.56-246.21,215.34-304.43,241.3c-87.68-40.68-297.41-184.48-392.11-464.35 c-2.1-7.72-4.21-15.43-6.31-23.85c1.4,10.52,2.81,20.34,4.21,30.86v-0.7c3.51,17.54,7.01,35.07,11.22,52.61 C207.5,801.49,421.44,957.21,502.1,1000C565.23,967.03,705.52,846.38,807.23,666.11" />
	<path fill="#b96" d="M189.96,276.81l44.89,267.25c0,0,105.92,159.23,256.73,244.1V433.94L189.96,276.81z" />
	<path fill="#b96" d="M514.73,424.12v363.35c2.81-2.1,6.31-3.51,9.12-5.61c2.81-1.4,4.91-2.81,7.72-4.91V419.21L514.73,424.12z" />
	<path fill="#98182b" d="M824.07,263.49c0,0-247.61,128.36-322.66,135.38c-83.47-8.42-311.44-122.05-311.44-122.05 c146.6,122.05,307.23,159.93,313.54,162.03l0,0c0,0,121.35-23.85,287.59-142.39c-1.4,25.95-9.12,101.71-23.15,187.99L824.07,263.49z" />
</svg>
