<?xml version="1.0" encoding="utf-8"?>
<svg version="1.1" xmlns="http://www.w3.org/2000/svg" xmlns:xlink="http://www.w3.org/1999/xlink" preserveAspectRatio="none" x="0" y="0" width="1000" height="238" viewBox="0 0 1000 238">
	<path fill="#98182b" d="M291,145.64c-7.67,5.33-17,8.17-28.17,8.33c-12.83,0.33-24.5-4-32.67-12c-7.5-7.5-11.5-17.33-11.17-28.67 c0.17-11.83,4.5-22.5,12.5-30.17c7.83-7.67,18.67-11.67,30.67-11.5c8.83,0.17,14.5,1.67,22.17,6L288,79.8V63.97l-1.5-0.67 c-8.67-3.67-14.5-4.33-24.5-4.5c-17.17-0.17-32.83,5.83-43.83,16.83c-10,9.83-15.33,23.17-15.33,37.5c0,14.83,5.83,28.5,16.17,38.33 c11.17,10.67,26.83,16.17,44,15.33h1.33c8.83-0.17,14.67-0.33,23.5-3.67l1-0.33l9-22.17L291,145.64z" />
	<path fill="#98182b" d="M376.83,105.64c-6.67-7-15.83-11-25.67-11.17l0,0c-9.67-0.17-19.17,3.67-26,10.5 c-6.83,6.83-10.67,15.67-10.67,25.17c0,19.5,16,35.67,35.5,35.83c9.83,0.17,19-3.5,26-10.33c6.83-6.67,10.67-15.33,10.83-24.83 C387,121.47,383.5,112.47,376.83,105.64 M350.67,154.14c-11.67,0-21-10.33-21.17-23.5c0-7.17,2.67-14,7.33-18.67 c3.83-3.83,8.67-5.67,14-5.5c11.67,0.5,21.17,11.17,21.17,23.83v0.83C371.5,143.8,362,154.14,350.67,154.14" />
	<path fill="#98182b" d="M556.83,149.97c-4,2.83-11.33,4.83-18.83,5.17c-6.5,0.17-12.67-2.33-17.33-7c-4.67-4.67-7.17-11-7-17.67 c0-13.67,10.17-24.17,23.83-24.33c6-0.17,12.33,1.83,16.33,4.83l4,3V98.3l-1.5-0.67c-6.83-2.83-11.67-2.83-18.33-3h-0.67 c-11.17-0.33-21.17,3.5-28.5,10.83c-6.5,6.5-10.17,15.17-10.17,24.67c0,0.33,0,0.5,0,0.83c0.17,9.67,3.83,18.5,10.67,25 c7.33,7,17.5,10.5,28.83,10.17h2.17c6.17-0.17,11-0.33,17.33-3l0.5-0.17l0.83-0.33l2.67-16L556.83,149.97z" />
	<path fill="#98182b" d="M646.17,105.64c-6.83-7.17-15.83-11.17-25.67-11.33c-9.67-0.17-19.17,3.67-26,10.5 c-6.83,6.83-10.67,15.67-10.67,25.17c0,19.5,16,35.67,35.5,35.83c9.83,0.17,19-3.5,26-10.33c6.83-6.67,10.67-15.33,10.67-24.83 c0-0.33,0-0.5,0-0.83C656.17,120.97,652.67,112.3,646.17,105.64 M620,154.14c-11.67,0-21-10.33-21.17-23.5 c0-7.17,2.67-14,7.33-18.67c3.83-3.83,8.67-5.67,14-5.5c11.83,0.67,21.17,11,21.17,23.83v0.83C641,143.8,631.5,154.14,620,154.14" />
	<path fill="#98182b" d="M969.33,164.97l-2-3.67c-0.83-1.5-1.17-2.33-1.5-4c-0.5-1.67-0.67-2.5-0.67-4.33v-35 c0-15.67-8.83-23.33-27.67-24l0,0c-7,0-13.83,0.33-20.83,4.67l-1.17,0.67v14.5l4.17-3.67c3.67-3.17,9.33-4.67,17.5-4.67 c7.67,0,13.5,3.83,13.5,9c0,4.5-2.33,5.67-7.5,6.5c0,0-1.17,0.17-13.5,2.33c-13.5,2-19.33,8-19.83,20c0,0.5,0,0.83,0,1.33 c0,5.33,1.83,10.17,5.5,14c4.5,4.67,11.5,7.33,19,7.33c5.17-0.17,11-0.83,16.67-4.5v3.83L969.33,164.97z M951.5,130.97v12.17 c0,7.33-7.83,11.67-15.33,11.83c-3.67,0-7.33-1.33-9.67-3.83c-1.67-1.83-2.5-3.83-2.5-6.17v-0.83c0.33-5,3.83-8.5,9.67-9.5 l12.17-2.33C945.83,132.47,949.33,131.64,951.5,130.97" />
	<path fill="#98182b" d="M458.17,162.47l-3.5,4.33H479l-3.17-4c-0.83-1-1.17-1.5-1.33-2.33c-0.67-2.33-0.67-3.5-0.67-5.5v-33.33 c0-6.83-2.83-13.33-8-18.17c-5.5-5.33-13.17-8.17-21.17-7.67c-7,0.17-12.33,2-17,5.67c0-0.83,0-3.33,0-3.33h-1.5h-15.83l2.33,6.5 v-0.17c0,0.33,0.17,0.67,0.17,0.83l0.5,2.5v51.17c0,0.83-0.17,1.17-0.33,1.83l-1,2.17l-1.17,1.83l-1.5,2.17h22.33l-3.17-6.5 c-0.67-2-0.67-3.33-0.67-5.83V122.3c0-8.5,6-14.67,14.67-15c5-0.17,10.17,1.67,13.33,4.83c2.17,2.17,3.33,4.83,3.33,7.67v35v2v3.67 C459.33,160.97,459.17,161.3,458.17,162.47" />
	<path fill="#98182b" d="M721.67,93.47c-5.17-0.83-9.5-0.17-13.67,2.17c-1.83,1-3.17,2.17-4.5,3.33V96.3h-20.17l2.83,3.5 c1.17,1.5,1.83,2.17,2.33,3.67c0.5,1.33,0.67,2.33,0.67,3.83v45.83v1c0,1.83,0,3-0.5,4.5c-0.17,0.83-0.5,1.17-1,2l-3,4.67h4.5h20 l-2.5-3.83c-1-1.67-1.5-2.67-2-4.33c-0.67-2.33-0.83-3.5-0.83-6v-28.5c0-6.33,2.83-12.17,7-14.5c3.17-1.83,5.83-2,9.5-0.83l3.33,1 V93.97L721.67,93.47z" />
	<path fill="#98182b" d="M872.17,68.3h-16.5v17h16.5V68.3z M856.5,161.3l-3,4.17H876l-2.67-4.5l-0.83-1.83 c-0.33-0.83-0.33-1.33-0.33-2.83v-60h-19.5l3,3c0.67,0.67,1,1.17,1.5,2.17c0.33,0.83,0.33,1.33,0.33,2.33v1.33v51.5v1l-0.17,2.33 C857.17,160.14,857,160.47,856.5,161.3" />
	<path fill="#98182b" d="M817.67,165.3l-3.33-4.83c-0.67-0.83-0.83-1.33-1-2c-0.83-5.33-0.83-8.33-0.83-14v-84h-19.83l3.5,4 c0,0,0.83,1.17,1,1.33v0.17l0.33,1.83c0,0,0,22.83-0.17,30.83c-5.33-3.83-10.83-5.5-17.67-5.17c-19.83,0.67-31.5,13.67-31.83,35.67 c-0.17,11.17,4,21.83,11.17,28.67c6,5.67,13.67,8.5,22.33,8.17c6.33-0.17,11.17-1.67,16.17-4.83v3.67h20.17V165.3z M798,122.14 v15.33c0,5.33-1.67,9.67-4.83,12.67c-3,2.83-7.17,4.17-12.17,3.83c-4.83-0.17-9.17-2.33-12.5-6.33c-4.5-5.17-6.67-12.83-5.83-20.33 c1-9.33,5.17-20.5,18.5-21.17c4.67-0.17,9,1.33,12.17,4.33C796.33,113.47,798,117.47,798,122.14" />
	<path fill="#b96" d="M330,18.8v13.17c0,7.67-5.17,10.33-11.67,10.33c-6.67,0-11.67-3.17-11.67-10.33V18.8h5.83v13.33 c0,3.33,2.33,5.33,5.83,5.33c3,0,5.83-1.67,5.83-5.83v-13H330V18.8z" />
	<polygon fill="#b96" points="386,42.14 381.17,42.14 368.33,27.3 368.33,42.14 362.5,42.14 362.5,18.8 367.83,18.8 380.17,33.14 380.17,18.8 386,18.8" />
	<rect fill="#b96" x="419" y="18.8" width="5.83" height="23.17" />
	<polygon fill="#b96" points="468.83,42.47 466.33,42.47 455.17,18.8 461.5,18.8 467.5,32.14 473.33,18.8 479.67,18.8" />
	<polygon fill="#b96" points="527,42.14 509.83,42.14 509.83,18.8 526.67,18.8 526.67,23.14 515.67,23.14 515.67,27.97 526.17,27.97 526.17,32.3 515.67,32.3 515.67,37.8 527,37.8" />
	<path fill="#b96" d="M569.33,18.8c4.83,0,7.67,3.17,7.67,6.67c0,2.5-1.33,4.5-4,5.67c2.33,1.17,3.17,4,6.33,10.83H573 c-2.5-5-3.33-9.5-6.5-9.5h-1.67v9.5H559V18.8H569.33z M564.67,28.47h3c1.67,0,3.17-0.67,3.17-2.67c0-1.67-1.17-2.67-3.33-2.67h-3 v5.33H564.67z" />
	<path fill="#b96" d="M625.17,24.97c-3.33-1.5-5.33-2-7.33-2s-3.33,0.83-3.33,1.83c0,3.5,11.83,2.5,11.83,10.67c0,4.5-3.67,7-9,7 c-4,0-6-1-8.33-2.17v-5c3.33,2.17,5.33,3,8,3c2.17,0,3.33-0.83,3.33-2.17c0-3.83-11.83-2.5-11.83-10.83c0-4,3.5-6.67,8.83-6.67 c2.67,0,5,0.5,7.83,1.83V24.97z" />
	<rect fill="#b96" x="657.83" y="18.8" width="5.83" height="23.17" />
	<polygon fill="#b96" points="717.67,23.14 709.17,23.14 709.17,42.14 703.33,42.14 703.33,23.14 695,23.14 695,18.8 717.67,18.8" />
	<path fill="#b96" d="M765.83,42.14h-17.17V18.97h16.83v4.33h-11.17v4.83H765v4.33h-10.67v5.67h11.33v4H765.83z M756.67,16.64h-2.5 l2.5-5h5.67L756.67,16.64z" />
	<path fill="#b96" d="M559.83,214.14v13.17c0,7.67-5.17,10.33-11.67,10.33c-6.67,0-11.67-3.17-11.67-10.33v-13.17h5.83v13.33 c0,3.33,2.33,5.33,5.83,5.33c3,0,5.83-1.67,5.83-5.83v-13h5.83V214.14z" />
	<polygon fill="#b96" points="615.83,237.3 611,237.3 598.17,222.47 598.17,237.3 592.33,237.3 592.33,214.14 597.67,214.14 610.17,228.3 610.17,214.14 615.83,214.14" />
	<rect fill="#b96" x="648.83" y="214.14" width="5.83" height="23.17" />
	<polygon fill="#b96" points="698.83,237.64 696.17,237.64 685,214.14 691.33,214.14 697.5,227.47 703.17,214.14 709.5,214.14" />
	<polygon fill="#b96" points="756.83,237.3 739.67,237.3 739.67,214.14 756.67,214.14 756.67,218.47 745.5,218.47 745.5,223.3 756.17,223.3 756.17,227.47 745.5,227.47 745.5,233.14 756.83,233.14" />
	<path fill="#b96" d="M799.17,214.14c4.83,0,7.67,3.17,7.67,6.67c0,2.5-1.33,4.5-4,5.67c2.33,1.17,3.17,4,6.33,10.83h-6.33 c-2.5-5-3.33-9.5-6.5-9.5h-1.67v9.5h-5.83v-23.17H799.17z M794.67,223.64h3c1.67,0,3.17-0.67,3.17-2.67c0-1.67-1.17-2.67-3.33-2.67h-3v5.33H794.67z" />
	<path fill="#b96" d="M855,220.14c-3.33-1.5-5.33-2-7.33-2s-3.33,0.83-3.33,1.83c0,3.5,11.83,2.5,11.83,10.67c0,4.5-3.67,7-9,7 c-4,0-6-1-8.33-2.17v-5c3.33,2.17,5.33,3,8,3c2.17,0,3.33-0.83,3.33-2.17c0-3.83-11.83-2.5-11.83-10.83c0-4,3.5-6.67,8.83-6.67 c2.67,0,5,0.5,7.83,1.83L855,220.14L855,220.14z" />
	<rect fill="#b96" x="887.83" y="214.14" width="5.83" height="23.17" />
	<polygon fill="#b96" points="947.5,218.47 939,218.47 939,237.3 933.33,237.3 933.33,218.47 924.83,218.47 924.83,214.14 947.5,214.14" />
	<polygon fill="#b96" points="985.17,226.47 976,214.14 983,214.14 988,221.47 993,214.14 1000,214.14 990.83,226.47 990.83,237.3 985.17,237.3" />
	<polygon fill="#d7c2a1" points="98.67,100.64 169.33,67.3 166.17,84.47 167.17,86.47 194.33,41.64 0,41.64 27.33,87.3" />
	<polygon fill="#fff" points="97.83,101.3 26,87.8 25,83.47 27.33,87.3 98.67,100.64 111.5,94.64" />
	<path fill="#fff" d="M98.67,100.64l-71.33-13.5L25,83.3l-4.67-21.83c3.5,2.67,41,15.67,48.67,18.17l0,0c-5-8.17-13-16-20.5-23.67 c5.33,5.5,14.83,10.83,22.33,15.5c2.83,1.83,5.67,3.5,8.83,5.17c-0.33-8.67-4.5-17.33-7.67-25.67c2.33,6.33,9.33,13.17,14.5,19.17 c1.5,1.67,3,3.33,4.83,5C95.5,66.8,97,57.8,97.17,49.3C97,57.14,98.67,66.97,103,74.97c2.17-2,4-4.17,5.83-6.17 c4.83-5.67,11.17-12,13.5-17.83c-3.17,8.5-7,17.17-7.5,25.83c12.17-6.17,21.67-14.17,31-21c-7.5,5.5-12.67,13-17.5,19.33 c-1,1.33-2.17,2.83-3,4.33h0.17c7.67-2.5,44.67-13.5,44.67-13.5L111.83,94.3L98.67,100.64" />
	<path fill="#98182b" d="M95.67,1.14c-57.17-4-89,6-94.83,7.17v16c16.67-3.67,46.33-8.83,88.33-10.17l0,0h0.17l0,0 C147,12.97,182.5,19.8,192.5,22.3l0,0C192.33,22.3,159,6.8,95.67,1.14" />
	<path fill="#98182b" d="M170.17,158.47c-24.5,29.83-58.5,51.17-72.33,57.33C77,206.14,27.17,171.97,4.67,105.47 c-0.5-1.83-1-3.67-1.5-5.67c0.33,2.5,0.67,4.83,1,7.33v-0.17c0.83,4.17,1.67,8.33,2.67,12.5C27.67,190.64,78.5,227.64,97.67,237.8 C112.67,229.97,146,201.3,170.17,158.47" />
	<path fill="#b96" d="M23.5,65.97l10.67,63.5c0,0,25.17,37.83,61,58V103.3L23.5,65.97z" />
	<path fill="#b96" d="M100.67,100.97v86.33c0.67-0.5,1.5-0.83,2.17-1.33c0.67-0.33,1.17-0.67,1.83-1.17v-85L100.67,100.97z" />
	<path fill="#98182b" d="M174.17,62.8c0,0-58.83,30.5-76.67,32.17c-19.83-2-74-29-74-29c34.83,29,73,38,74.5,38.5l0,0 c0,0,28.83-5.67,68.33-33.83c-0.33,6.17-2.17,24.17-5.5,44.67L174.17,62.8z" />
</svg>
